<?xml version="1.0" encoding="UTF-8"?>
<svg width="2000px" height="850px" viewBox="0 0 2000 850" version="1.1" xmlns="http://www.w3.org/2000/svg" xmlns:xlink="http://www.w3.org/1999/xlink">
    <!-- Generator: Sketch 48.1 (47250) - http://www.bohemiancoding.com/sketch -->
    <title>gradient@2x</title>
    <desc>Created with Sketch.</desc>
    <defs>
        <linearGradient x1="50%" y1="1.52264031%" x2="50%" y2="98.3856824%" id="linearGradient-1">
            <stop stop-color="#FCFCFC" offset="0%"></stop>
            <stop stop-color="#FF2D55" offset="100%"></stop>
        </linearGradient>
        <linearGradient x1="97.7476838%" y1="50%" x2="-14.6340805%" y2="-34.0648139%" id="linearGradient-2">
            <stop stop-color="#FFFCEF" offset="0%"></stop>
            <stop stop-color="#E4E4FF" offset="100%"></stop>
        </linearGradient>
        <linearGradient x1="50%" y1="0%" x2="50%" y2="99.2885045%" id="linearGradient-3">
            <stop stop-color="#FFFCE6" offset="0%"></stop>
            <stop stop-color="#FFF1C8" offset="100%"></stop>
        </linearGradient>
        <linearGradient x1="31.4348899%" y1="-9.30646356%" x2="-20.9510517%" y2="126.331044%" id="linearGradient-4">
            <stop stop-color="#FFFCF1" offset="0%"></stop>
            <stop stop-color="#FF2D55" offset="100%"></stop>
        </linearGradient>
    </defs>
    <g id="Background" stroke="none" stroke-width="1" fill="none" fill-rule="evenodd" transform="translate(-555.000000, 0.000000)">
        <g transform="translate(-129.000000, -50.000000)" id="gradient">
            <g transform="translate(708.000000, 0.000000)">
                <path d="M2.84217094e-14,15.4294136 C194,33.5816648 360.600913,43.565403 492,109.82112 C623.399087,176.076837 740,292.251245 861,490.110784 C982,687.970322 1096.28079,806 1215,806 C1366,806 1417,744 1555,744 C1693,744 1901.07154,937.563538 1976,892 C2088,823.893485 2088,535.226819 1976,26 L2.84217094e-14,15.4294136 Z" id="Path-1" fill="url(#linearGradient-1)" style="mix-blend-mode: multiply;"></path>
                <path d="M73,15.4294136 C114,110.728733 283,231.441203 426,265.930481 C569,300.419758 839,270.468544 960,468.328082 C1047,628.067893 1145,664.815225 1196,663 C1374,674 1364,304 1544,304 C1682.99995,304 1816,538.328082 1976,468.328082 C1991.54674,461.526381 1991.54674,310.560158 1976,15.4294136 L73,15.4294136 Z" id="Path-2" fill="url(#linearGradient-2)" style="mix-blend-mode: multiply;"></path>
                <path d="M559,15.4294136 C753,33.5816648 675.600913,141.58756 807,207.843277 C938.399087,274.098994 1022,233.256429 1143,431.115967 C1185.61584,509.362472 1261,607 1316,540 C1414.57094,419.922677 1550.00049,692 1680,692 C1753,692 1815.71642,605.337689 1864,547 C1904.90836,497.573277 1974.42361,477.325422 1976,476 C1979.12849,473.369578 1979.12849,319.846049 1976,15.4294136 L559,15.4294136 Z" id="Path-3" fill="url(#linearGradient-3)" style="mix-blend-mode: multiply;"></path>
                <path d="M138,0 C332,18.1522513 274.600913,157.016973 406,223.27269 C537.399087,289.528407 632,211.473727 753,409.333266 C874,607.192804 929,663.048785 1017,693 C1061.74239,703.547728 1108,681 1187,725 C1311,839 1356,863 1503,793 C1650,723 1951,999 2040,855 L2000,0 L138,0 Z" id="Path-4" fill="url(#linearGradient-4)" style="mix-blend-mode: multiply;" opacity="0.886322464"></path>
                <g id="graph" opacity="0.800668025" style="mix-blend-mode: overlay;" transform="translate(207.000000, 34.036055)" stroke="#FFFFFF" stroke-width="6">
                    <circle id="Oval" cx="75" cy="59.9195475" r="7"></circle>
                    <circle id="Oval-Copy" cx="253" cy="146.774733" r="7"></circle>
                    <circle id="Oval-Copy-2" cx="436" cy="116.192492" r="7"></circle>
                    <circle id="Oval-Copy-3" cx="560" cy="276.842672" r="7"></circle>
                    <circle id="Oval-Copy-4" cx="864" cy="365.79023" r="7"></circle>
                    <circle id="Oval-Copy-5" cx="945" cy="536.42432" r="7"></circle>
                    <circle id="Oval-Copy-6" cx="1050" cy="452.014903" r="7"></circle>
                    <circle id="Oval-Copy-6" cx="1179" cy="516" r="7"></circle>
                    <circle id="Oval-Copy-7" cx="1356" cy="417" r="7"></circle>
                    <circle id="Oval-Copy-8" cx="1490" cy="583" r="7"></circle>
                    <circle id="Oval-Copy-9" cx="1668" cy="516" r="7"></circle>
                    <path d="M260,147.963945 L429,114.963945" id="Line" stroke-linecap="round" stroke-linejoin="round"></path>
                    <path d="M442,120.963945 L555,269.565557" id="Line" stroke-linecap="round" stroke-linejoin="round"></path>
                    <path d="M568,280.457094 L856,363.051255" id="Line" stroke-linecap="round" stroke-linejoin="round"></path>
                    <path d="M869,371.963945 L941,529.147204" id="Line" stroke-linecap="round" stroke-linejoin="round"></path>
                    <path d="M1043,457.444581 L952,531.870088" id="Line" stroke-linecap="round" stroke-linejoin="round"></path>
                    <path d="M82,62.6263415 L245,146.12813" id="Line" stroke-linecap="round" stroke-linejoin="round"></path>
                    <path d="M0,0 L67,53.5500601" id="Line" stroke-linecap="round" stroke-linejoin="round"></path>
                    <path d="M1057,454.963945 L1173,511.963945" id="Line" stroke-linecap="round" stroke-linejoin="round"></path>
                    <path d="M1350,420.963945 L1186,514.963945" id="Line" stroke-linecap="round" stroke-linejoin="round"></path>
                    <path d="M1362,421.963945 L1485,577.963945" id="Line" stroke-linecap="round" stroke-linejoin="round"></path>
                    <path d="M1661,517.963945 L1498,581.963945" id="Line" stroke-linecap="round" stroke-linejoin="round"></path>
                    <path d="M1675,517.963945 L1812,556.963945" id="Line" stroke-linecap="round" stroke-linejoin="round"></path>
                </g>
            </g>
        </g>
    </g>
</svg>