<?xml version="1.0" encoding="UTF-8"?>
<svg width="1970px" height="1102px" viewBox="0 0 1970 1102" version="1.1" xmlns="http://www.w3.org/2000/svg" xmlns:xlink="http://www.w3.org/1999/xlink">
    <!-- Generator: Sketch 48.2 (47327) - http://www.bohemiancoding.com/sketch -->
    <title>Path 5</title>
    <desc>Created with Sketch.</desc>
    <defs>
        <linearGradient x1="14.8809522%" y1="3.50833687%" x2="14.8809522%" y2="100%" id="linearGradient-1">
            <stop stop-color="#EEEAFC" offset="0%"></stop>
            <stop stop-color="#F8F8FC" offset="84.510523%"></stop>
            <stop stop-color="#F8F8FC" offset="100%"></stop>
        </linearGradient>
    </defs>
    <g id="Background" stroke="none" stroke-width="1" fill="none" fill-rule="evenodd" transform="translate(-579.000000, -762.000000)">
        <g transform="translate(-128.000000, -50.000000)" fill="url(#linearGradient-1)" id="Path-5">
            <path d="M126,920.588437 C379,952 415,952.953229 577,989.541665 C670,1019.95323 786,817 965,815 C1087,817 1220,929.588437 1362,962 C1464.3739,985.36689 1569.64763,958.705328 1651,941 C1767.66877,915.608499 1849.96514,954.365483 1933,989.541665 C2274,1134 2362,960.519659 2528,920.588437 C2694,880.657214 2941.26793,1047.23916 3021,1094 C3088.64006,1133.66918 3018.64006,1408.00251 2811,1917 L131,1917 C-41,1231.78458 -42.6666667,899.647394 126,920.588437 Z"></path>
        </g>
    </g>
</svg>