<?xml version="1.0" encoding="UTF-8"?>
<svg width="200px" height="60px" viewBox="0 0 200 60" version="1.1" xmlns="http://www.w3.org/2000/svg" xmlns:xlink="http://www.w3.org/1999/xlink">
    <!-- Generator: Sketch 48.2 (47327) - http://www.bohemiancoding.com/sketch -->
    <title>download button</title>
    <desc>Created with Sketch.</desc>
    <defs>
        <linearGradient x1="50%" y1="1.52264031%" x2="50%" y2="98.3856824%" id="linearGradient-1">
            <stop stop-color="#FCFCFC" offset="0%"></stop>
            <stop stop-color="#FF2D55" offset="100%"></stop>
        </linearGradient>
        <linearGradient x1="31.4348899%" y1="-9.30646356%" x2="-20.9510517%" y2="126.331044%" id="linearGradient-2">
            <stop stop-color="#FFFCF1" offset="0%"></stop>
            <stop stop-color="#FF2D55" offset="100%"></stop>
        </linearGradient>
    </defs>
    <g id="Desktop" stroke="none" stroke-width="1" fill="none" fill-rule="evenodd" transform="translate(-161.000000, -657.000000)">
        <g id="Background" transform="translate(-683.000000, -50.000000)">
            <g id="gradient" transform="translate(708.000000, 0.000000)">
                <path d="M2.84217094e-14,15.4294136 C194,33.5816648 360.600913,43.565403 492,109.82112 C623.399087,176.076837 740,292.251245 861,490.110784 C982,687.970322 1096.28079,806 1215,806 C1366,806 1417,744 1555,744 C1693,744 1901.07154,937.563538 1976,892 C2088,823.893485 2088,535.226819 1976,26 L2.84217094e-14,15.4294136 Z" id="Path-1" fill="url(#linearGradient-1)" style="mix-blend-mode: multiply;"></path>
                <path d="M138,0 C332,18.1522513 274.600913,157.016973 406,223.27269 C537.399087,289.528407 632,211.473727 753,409.333266 C874,607.192804 929,663.048785 1017,693 C1061.74239,703.547728 1108,681 1187,725 C1311,839 1356,863 1503,793 C1650,723 1951,999 2040,855 L2000,0 L138,0 Z" id="Path-4" fill="url(#linearGradient-2)" style="mix-blend-mode: multiply;" opacity="0.886322464"></path>
            </g>
        </g>
        <g id="first-block" transform="translate(161.000000, 115.000000)" fill-rule="nonzero">
            <g id="download-button" transform="translate(0.000000, 542.000000)">
                <rect id="Rectangle-path" fill="#000000" x="0" y="0" width="200" height="60" rx="6"></rect>
                <path d="M44.304,29.676 C44.26,24.842 48.272,22.49 48.455,22.38 C46.183,19.076 42.662,18.624 41.424,18.588 C38.466,18.278 35.597,20.354 34.09,20.354 C32.554,20.354 30.233,18.618 27.733,18.669 C24.515,18.719 21.504,20.577 19.853,23.463 C16.446,29.348 18.987,37.995 22.252,42.751 C23.885,45.081 25.793,47.682 28.291,47.591 C30.734,47.49 31.647,46.036 34.596,46.036 C37.517,46.036 38.374,47.59 40.922,47.532 C43.544,47.49 45.195,45.192 46.772,42.842 C48.658,40.172 49.416,37.542 49.446,37.407 C49.385,37.386 44.353,35.471 44.304,29.676 Z M39.492,15.459 C40.806,13.819 41.705,11.589 41.456,9.326 C39.553,9.409 37.175,10.638 35.805,12.241 C34.593,13.655 33.51,15.971 33.79,18.149 C35.926,18.307 38.12,17.073 39.492,15.459 Z M182.686,39.378 C182.686,39.951 182.649,40.434 182.569,40.828 L172.951,40.828 C172.989,42.25 173.454,43.338 174.347,44.088 C175.157,44.758 176.205,45.094 177.493,45.094 C178.917,45.094 180.216,44.868 181.384,44.414 L181.886,46.634 C180.521,47.227 178.909,47.523 177.049,47.523 C174.812,47.523 173.055,46.866 171.777,45.553 C170.502,44.241 169.863,42.479 169.863,40.268 C169.863,38.097 170.457,36.289 171.646,34.848 C172.891,33.309 174.574,32.54 176.691,32.54 C178.771,32.54 180.345,33.309 181.414,34.848 C182.261,36.07 182.686,37.582 182.686,39.378 Z M179.629,38.548 C179.65,37.601 179.441,36.782 179.007,36.09 C178.452,35.2 177.599,34.757 176.452,34.757 C175.404,34.757 174.552,35.19 173.9,36.06 C173.366,36.751 173.05,37.581 172.951,38.547 L179.629,38.547 L179.629,38.549 L179.629,38.548 Z M168.349,35.675 C168.015732,35.6147444 167.67767,35.5849548 167.339,35.586 C166.21,35.586 165.339,36.011 164.725,36.861 C164.191,37.611 163.923,38.559 163.923,39.703 L163.923,47.256 L160.719,47.256 L160.749,37.395 C160.749,35.736 160.709,34.225 160.629,32.863 L163.421,32.863 L163.538,35.617 L163.627,35.617 C163.965,34.671 164.499,33.909 165.23,33.337 C165.944,32.823 166.716,32.567 167.547,32.567 C167.843,32.567 168.111,32.587 168.349,32.625 L168.349,35.675 Z M157.928,39.94 C157.928,42.153 157.293,43.97 156.028,45.39 C154.699,46.852 152.938,47.581 150.74,47.581 C148.623,47.581 146.937,46.881 145.68,45.48 C144.423,44.079 143.795,42.31 143.795,40.179 C143.795,37.949 144.441,36.121 145.739,34.701 C147.034,33.279 148.781,32.568 150.978,32.568 C153.095,32.568 154.798,33.268 156.084,34.671 C157.314,36.031 157.928,37.788 157.928,39.941 L157.928,39.94 Z M154.602,40.044 C154.602,38.716 154.318,37.578 153.742,36.629 C153.069,35.479 152.109,34.906 150.864,34.906 C149.574,34.906 148.596,35.481 147.924,36.628 C147.348,37.579 147.064,38.736 147.064,40.104 C147.064,41.431 147.348,42.57 147.924,43.518 C148.617,44.667 149.585,45.24 150.835,45.24 C152.059,45.24 153.02,44.655 153.713,43.488 C154.304,42.521 154.602,41.37 154.602,40.044 Z M141.984,35.262 L138.45,35.262 L138.45,42.251 C138.45,44.028 139.073,44.916 140.321,44.916 C140.894,44.916 141.369,44.866 141.745,44.768 L141.834,47.196 C141.202,47.431 140.371,47.55 139.341,47.55 C138.075,47.55 137.085,47.164 136.371,46.395 C135.66,45.624 135.301,44.331 135.301,42.515 L135.301,35.259 L133.197,35.259 L133.197,32.859 L135.302,32.859 L135.302,30.224 L138.45,29.276 L138.45,32.859 L141.984,32.859 L141.984,35.262 Z M131.385,41.658 C131.385,43.356 130.794,44.738 129.607,45.804 C128.303,46.97 126.489,47.552 124.157,47.552 C122.003,47.552 120.277,47.138 118.97,46.308 L119.713,43.643 C121.12,44.492 122.665,44.918 124.347,44.918 C125.555,44.918 126.495,44.645 127.17,44.102 C127.842,43.559 128.177,42.83 128.177,41.921 C128.177,41.111 127.9,40.428 127.346,39.875 C126.794,39.321 125.872,38.807 124.585,38.331 C121.081,37.028 119.331,35.118 119.331,32.607 C119.331,30.966 119.944,29.621 121.173,28.574 C122.397,27.525 124.03,27.002 126.072,27.002 C127.893,27.002 129.406,27.318 130.613,27.95 L129.812,30.557 C128.684,29.945 127.409,29.639 125.982,29.639 C124.854,29.639 123.972,29.916 123.342,30.468 C122.807,30.962 122.54,31.563 122.54,32.276 C122.54,33.065 122.845,33.717 123.459,34.23 C123.992,34.704 124.962,35.217 126.369,35.77 C128.091,36.462 129.356,37.27 130.169,38.198 C130.98,39.122 131.385,40.278 131.385,41.658 Z M112.829,39.882 C112.829,42.33 112.166,44.265 110.838,45.686 C109.652,46.95 108.176,47.581 106.416,47.581 C104.515,47.581 103.15,46.901 102.319,45.538 L102.259,45.538 L102.259,53.121 L99.053,53.121 L99.053,37.601 C99.053,36.061 99.013,34.482 98.935,32.862 L101.755,32.862 L101.933,35.143 L101.993,35.143 C103.061,33.424 104.683,32.566 106.863,32.566 C108.563,32.566 109.983,33.237 111.123,34.579 C112.259,35.923 112.829,37.69 112.829,39.882 Z M109.563,39.999 C109.563,38.598 109.246,37.443 108.611,36.534 C107.918,35.586 106.99,35.112 105.821,35.112 C105.029,35.112 104.311,35.376 103.668,35.896 C103.025,36.421 102.605,37.107 102.408,37.956 C102.31,38.352 102.259,38.676 102.259,38.931 L102.259,41.331 C102.259,42.378 102.581,43.261 103.222,43.983 C103.865,44.703 104.702,45.064 105.732,45.064 C106.94,45.064 107.88,44.599 108.552,43.672 C109.226,42.744 109.562,41.52 109.562,39.999 L109.563,39.999 Z M96.232,39.882 C96.232,42.33 95.569,44.265 94.243,45.686 C93.055,46.95 91.58,47.581 89.819,47.581 C87.919,47.581 86.553,46.901 85.722,45.538 L85.662,45.538 L85.662,53.121 L82.456,53.121 L82.456,37.601 C82.456,36.061 82.415,34.482 82.336,32.862 L85.156,32.862 L85.336,35.143 L85.396,35.143 C86.464,33.424 88.086,32.566 90.264,32.566 C91.966,32.566 93.387,33.237 94.524,34.579 C95.664,35.923 96.232,37.69 96.232,39.882 Z M92.966,39.999 C92.966,38.598 92.651,37.443 92.016,36.534 C91.323,35.586 90.392,35.112 89.226,35.112 C88.434,35.112 87.716,35.376 87.073,35.896 C86.43,36.421 86.009,37.107 85.812,37.956 C85.712,38.352 85.663,38.676 85.663,38.931 L85.663,41.331 C85.663,42.378 85.985,43.261 86.628,43.983 C87.272,44.704 88.108,45.064 89.137,45.064 C90.344,45.064 91.284,44.599 91.956,43.672 C92.63,42.744 92.966,41.52 92.966,39.999 Z M79.666,47.256 L76.251,47.256 L74.381,41.392 L67.879,41.392 L66.097,47.256 L62.772,47.256 L69.214,27.294 L73.193,27.294 L79.666,47.256 Z M73.816,38.932 L72.126,33.72 C71.946,33.188 71.611,31.934 71.116,29.96 L71.056,29.96 C70.859,30.808 70.542,32.062 70.106,33.72 L68.444,38.932 L73.817,38.932 L73.816,38.932 Z M181.26,16.28 C181.26,16.561 181.238,16.798 181.2,16.992 L176.475,16.992 C176.495,17.691 176.721,18.223 177.159,18.592 C177.559,18.922 178.075,19.087 178.706,19.087 C179.406,19.087 180.043,18.977 180.617,18.753 L180.864,19.845 C180.192,20.136 179.401,20.281 178.485,20.281 C177.387,20.281 176.523,19.959 175.897,19.314 C175.269,18.669 174.957,17.804 174.957,16.718 C174.957,15.651 175.247,14.763 175.833,14.055 C176.443,13.299 177.269,12.921 178.311,12.921 C179.331,12.921 180.105,13.299 180.628,14.055 C181.05,14.655 181.259,15.398 181.259,16.279 L181.26,16.28 Z M179.756,15.873 C179.768,15.407 179.664,15.004 179.45,14.665 C179.177,14.229 178.76,14.01 178.196,14.01 C177.682,14.01 177.263,14.223 176.942,14.65 C176.675165,15.0060494 176.513388,15.4297183 176.475,15.873 L179.755,15.873 L179.756,15.873 Z M172.654,20.15 L171.076,20.15 L171.076,16.13 C171.076,14.862 170.601,14.228 169.649,14.228 C168.919,14.228 168.419,14.595 168.146,15.33 C168.094082,15.5137518 168.069155,15.7040756 168.072,15.895 L168.072,20.148 L166.498,20.148 L166.498,9.834 L168.072,9.834 L168.072,14.095 L168.102,14.095 C168.598,13.32 169.309,12.933 170.232,12.933 C170.884,12.933 171.424,13.146 171.852,13.573 C172.386,14.106 172.654,14.898 172.654,15.945 L172.654,20.149 L172.654,20.15 Z M164.311,14.256 L162.576,14.256 L162.576,17.691 C162.576,18.564 162.884,19.001 163.495,19.001 C163.777,19.001 164.012,18.977 164.197,18.927 L164.237,20.12 C163.927,20.237 163.517,20.295 163.013,20.295 C162.391,20.295 161.907,20.106 161.556,19.728 C161.205,19.35 161.03,18.714 161.03,17.822 L161.03,14.256 L159.994,14.256 L159.994,13.078 L161.03,13.078 L161.03,11.783 L162.574,11.318 L162.574,13.077 L164.31,13.077 L164.31,14.256 L164.311,14.256 Z M153.706,20.15 L152.131,20.15 L152.131,16.1 C152.131,14.851 151.656,14.227 150.701,14.227 C150.233,14.227 149.856,14.398 149.564,14.742 C149.27502,15.078966 149.119551,15.5101534 149.127,15.954 L149.127,20.148 L147.549,20.148 L147.549,15.099 C147.549,14.478 147.531,13.804 147.494,13.075 L148.877,13.075 L148.951,14.181 L148.994,14.181 C149.179,13.838 149.454,13.554 149.811,13.328 C150.240555,13.0630404 150.736325,12.9250569 151.241,12.93 C151.901,12.93 152.451,13.143 152.889,13.57 C153.435,14.094 153.706,14.876 153.706,15.914 L153.706,20.15 Z M145.232,16.556 C145.232,17.643 144.921,18.534 144.298,19.233 C143.646,19.952 142.783,20.31 141.701,20.31 C140.662,20.31 139.834,19.967 139.214,19.277 C138.598,18.588 138.29,17.72 138.29,16.673 C138.29,15.578 138.607,14.679 139.244,13.982 C139.882,13.284 140.739,12.935 141.82,12.935 C142.86,12.935 143.697,13.278 144.328,13.967 C144.93,14.636 145.232,15.5 145.232,16.556 Z M143.599,16.606 C143.599,15.954 143.458,15.394 143.177,14.928 C142.844,14.364 142.375,14.082 141.762,14.082 C141.13,14.082 140.649,14.364 140.317,14.928 C140.034,15.394 139.894,15.963 139.894,16.635 C139.894,17.287 140.035,17.847 140.317,18.313 C140.657,18.878 141.133,19.16 141.747,19.16 C142.348,19.16 142.822,18.873 143.162,18.299 C143.452,17.823 143.599,17.259 143.599,16.607 L143.599,16.606 Z M131.754,20.15 L130.356,20.15 L130.282,19.014 L130.239,19.014 C129.792,19.878 129.031,20.31 127.962,20.31 C127.108,20.31 126.397,19.976 125.832,19.307 C125.269,18.637 124.988,17.769 124.988,16.703 C124.988,15.558 125.293,14.631 125.907,13.923 C126.501,13.263 127.228,12.933 128.094,12.933 C129.046,12.933 129.712,13.253 130.091,13.893 L130.121,13.893 L130.121,9.834 L131.699,9.834 L131.699,18.244 C131.699,18.933 131.717,19.568 131.754,20.15 Z M130.121,17.168 L130.121,15.988 C130.121,15.785 130.106,15.62 130.078,15.494 C129.99383,15.1239407 129.794222,14.7902095 129.508,14.541 C129.217179,14.2852573 128.841203,14.147566 128.454,14.155 C127.866,14.155 127.406,14.388 127.067,14.855 C126.732,15.321 126.562,15.916 126.562,16.644 C126.562,17.343 126.723,17.91 127.046,18.347 C127.388,18.811 127.848,19.044 128.424,19.044 C128.941,19.044 129.354,18.85 129.669,18.462 C129.973,18.103 130.121,17.672 130.121,17.167 L130.121,17.168 Z M122.8,20.15 L121.385,20.15 L121.268,19.335 L121.224,19.335 C120.74,19.985 120.05,20.31 119.154,20.31 C118.484,20.31 117.943,20.096 117.535,19.67 C117.165,19.282 116.981,18.801 116.981,18.23 C116.981,17.366 117.341,16.707 118.068,16.251 C118.793,15.795 119.812,15.571 121.125,15.582 L121.125,15.45 C121.125,14.519 120.635,14.054 119.653,14.054 C118.953,14.054 118.337,14.229 117.805,14.577 L117.485,13.545 C118.143,13.138 118.956,12.935 119.915,12.935 C121.768,12.935 122.698,13.909 122.698,15.859 L122.698,18.464 C122.698,19.17 122.732,19.733 122.8,20.15 Z M121.164,17.72 L121.164,16.629 C119.426,16.599 118.556,17.074 118.556,18.054 C118.556,18.423 118.656,18.699 118.859,18.884 C119.062,19.068 119.32,19.159 119.629,19.159 C119.974,19.159 120.298,19.05 120.592,18.832 C120.954964,18.5783955 121.169086,18.1617551 121.164,17.719 L121.164,17.72 Z M115.173,16.556 C115.173,17.643 114.862,18.534 114.239,19.233 C113.587,19.952 112.721,20.31 111.642,20.31 C110.6,20.31 109.772,19.967 109.155,19.277 C108.539,18.588 108.231,17.72 108.231,16.673 C108.231,15.578 108.548,14.679 109.185,13.982 C109.823,13.284 110.68,12.935 111.758,12.935 C112.8,12.935 113.635,13.278 114.269,13.967 C114.871,14.636 115.173,15.5 115.173,16.556 Z M113.537,16.606 C113.537,15.954 113.396,15.394 113.115,14.928 C112.785,14.364 112.313,14.082 111.703,14.082 C111.068,14.082 110.587,14.364 110.258,14.928 C109.975,15.394 109.835,15.963 109.835,16.635 C109.835,17.287 109.976,17.847 110.258,18.313 C110.598,18.878 111.074,19.16 111.688,19.16 C112.289,19.16 112.76,18.873 113.1,18.299 C113.393,17.823 113.537,17.259 113.537,16.607 L113.537,16.606 Z M105.895,20.15 L104.321,20.15 L104.321,9.833 L105.895,9.833 L105.895,20.15 Z M101.55,20.15 L99.974,20.15 L99.974,16.1 C99.974,14.851 99.499,14.227 98.545,14.227 C98.078,14.227 97.7,14.398 97.407,14.742 C97.117,15.085 96.969,15.49 96.969,15.954 L96.969,20.148 L95.393,20.148 L95.393,15.099 C95.3909966,14.4239618 95.3719906,13.7490811 95.336,13.075 L96.721,13.075 L96.795,14.181 L96.838,14.181 C97.0306781,13.8298378 97.3124672,13.535632 97.655,13.328 C98.0841342,13.0629193 98.5796211,12.924918 99.084,12.93 C99.745,12.93 100.295,13.143 100.734,13.57 C101.277,14.094 101.55,14.876 101.55,15.914 L101.55,20.15 Z M93.38,13.079 L91.162,20.149 L89.718,20.149 L88.8,17.079 C88.570993,16.3275977 88.3807422,15.5649257 88.23,14.794 L88.2,14.794 C88.0640378,15.5681374 87.8735638,16.3317042 87.63,17.079 L86.654,20.149 L85.194,20.149 L83.109,13.079 L84.729,13.079 L85.529,16.44 C85.724,17.235 85.883,17.992 86.011,18.71 L86.039,18.71 C86.1997469,17.9498613 86.3949482,17.1974188 86.624,16.455 L87.63,13.08 L88.914,13.08 L89.878,16.383 C90.111,17.189 90.301,17.964 90.447,18.711 L90.49,18.711 C90.597,17.984 90.758,17.208 90.972,16.383 L91.832,13.08 L93.379,13.08 L93.379,13.079 L93.38,13.079 Z M81.567,16.556 C81.567,17.643 81.256,18.534 80.633,19.233 C79.98,19.952 79.116,20.31 78.036,20.31 C76.996,20.31 76.167,19.967 75.549,19.277 C74.933,18.588 74.624,17.72 74.624,16.673 C74.624,15.578 74.942,14.679 75.579,13.982 C76.217,13.284 77.074,12.935 78.153,12.935 C79.194,12.935 80.03,13.278 80.663,13.967 C81.265,14.636 81.567,15.5 81.567,16.556 Z M79.932,16.606 C79.932,15.954 79.791,15.394 79.51,14.928 C79.179,14.364 78.708,14.082 78.096,14.082 C77.463,14.082 76.982,14.364 76.651,14.928 C76.369,15.394 76.229,15.963 76.229,16.635 C76.229,17.287 76.37,17.847 76.651,18.313 C76.993,18.878 77.468,19.16 78.081,19.16 C78.683,19.16 79.155,18.873 79.495,18.299 C79.786,17.823 79.932,17.259 79.932,16.607 L79.932,16.606 Z M72.757,15.014 C72.757,16.779 72.226,18.108 71.166,19.001 C70.184,19.824 68.788,20.237 66.981,20.237 C66.2110281,20.2436604 65.44134,20.2045916 64.676,20.12 L64.676,10.473 C65.513,10.338 66.416,10.269 67.39,10.269 C69.112,10.269 70.41,10.643 71.285,11.389 C72.265,12.234 72.757,13.442 72.757,15.014 Z M71.095,15.057 C71.095,13.913 70.791,13.035 70.184,12.423 C69.576,11.813 68.689,11.507 67.521,11.507 C67.025,11.507 66.602,11.54 66.251,11.609 L66.251,18.942 C66.446,18.972 66.801,18.986 67.316,18.986 C68.522,18.986 69.453,18.651 70.109,17.982 C70.764,17.313 71.095,16.338 71.095,15.057 Z" id="Shape" fill="#FFFFFF"></path>
            </g>
        </g>
    </g>
</svg>