<?xml version="1.0" encoding="UTF-8"?>
<svg width="59px" height="78px" viewBox="0 0 59 78" version="1.1" xmlns="http://www.w3.org/2000/svg" xmlns:xlink="http://www.w3.org/1999/xlink">
    <!-- Generator: Sketch 48.2 (47327) - http://www.bohemiancoding.com/sketch -->
    <title>logo</title>
    <desc>Created with Sketch.</desc>
    <defs>
        <linearGradient x1="50%" y1="1.52264031%" x2="50%" y2="98.3856824%" id="linearGradient-1">
            <stop stop-color="#FCFCFC" offset="0%"></stop>
            <stop stop-color="#FF2D55" offset="100%"></stop>
        </linearGradient>
        <linearGradient x1="97.7476838%" y1="50%" x2="-14.6340805%" y2="-34.0648139%" id="linearGradient-2">
            <stop stop-color="#FFFCEF" offset="0%"></stop>
            <stop stop-color="#E4E4FF" offset="100%"></stop>
        </linearGradient>
        <linearGradient x1="31.4348899%" y1="-9.30646356%" x2="-20.9510517%" y2="126.331044%" id="linearGradient-3">
            <stop stop-color="#FFFCF1" offset="0%"></stop>
            <stop stop-color="#FF2D55" offset="100%"></stop>
        </linearGradient>
    </defs>
    <g id="Desktop" stroke="none" stroke-width="1" fill="none" fill-rule="evenodd" transform="translate(-161.000000, -274.000000)">
        <g id="Background" transform="translate(-683.000000, -50.000000)">
            <g id="gradient" transform="translate(708.000000, 0.000000)">
                <path d="M2.84217094e-14,15.4294136 C194,33.5816648 360.600913,43.565403 492,109.82112 C623.399087,176.076837 740,292.251245 861,490.110784 C982,687.970322 1096.28079,806 1215,806 C1366,806 1417,744 1555,744 C1693,744 1901.07154,937.563538 1976,892 C2088,823.893485 2088,535.226819 1976,26 L2.84217094e-14,15.4294136 Z" id="Path-1" fill="url(#linearGradient-1)" style="mix-blend-mode: multiply;"></path>
                <path d="M73,15.4294136 C114,110.728733 283,231.441203 426,265.930481 C569,300.419758 839,270.468544 960,468.328082 C1047,628.067893 1145,664.815225 1196,663 C1374,674 1364,304 1544,304 C1682.99995,304 1816,538.328082 1976,468.328082 C1991.54674,461.526381 1991.54674,310.560158 1976,15.4294136 L73,15.4294136 Z" id="Path-2" fill="url(#linearGradient-2)" style="mix-blend-mode: multiply;"></path>
                <path d="M138,0 C332,18.1522513 274.600913,157.016973 406,223.27269 C537.399087,289.528407 632,211.473727 753,409.333266 C874,607.192804 929,663.048785 1017,693 C1061.74239,703.547728 1108,681 1187,725 C1311,839 1356,863 1503,793 C1650,723 1951,999 2040,855 L2000,0 L138,0 Z" id="Path-4" fill="url(#linearGradient-3)" style="mix-blend-mode: multiply;" opacity="0.886322464"></path>
            </g>
        </g>
        <g id="first-block" transform="translate(161.000000, 115.000000)">
            <g id="logo" transform="translate(0.000000, 159.000000)">
                <g>
                    <path d="M33.2861314,76.9710506 C45.4615969,76.9710506 55.3317619,66.9442164 55.3317619,54.5754895 L55.3317619,46.924812 C55.3317619,45.1203008 12.4342105,43.3157895 11.240501,48.1278195 C11.240501,54.7443609 11.240501,53.0338114 11.240501,54.5754895 C11.240501,66.9442164 21.1106659,76.9710506 33.2861314,76.9710506 Z" id="Path" stroke="#000000" stroke-width="2" fill="#FFFFFF"></path>
                    <rect id="Rectangle-3" stroke="#000000" stroke-width="2" fill="#FFFFFF" transform="translate(31.541092, 23.500000) scale(-1, 1) rotate(-14.000000) translate(-31.541092, -23.500000) " x="26" y="1" width="11.0821841" height="45" rx="5.54109203"></rect>
                    <rect id="Rectangle-3" stroke="#000000" stroke-width="2" fill="#FFFFFF" transform="translate(11.541092, 23.500000) rotate(-14.000000) translate(-11.541092, -23.500000) " x="6" y="1" width="11.0821841" height="45" rx="5.54109203"></rect>
                    <rect id="Rectangle-3" stroke="#000000" stroke-width="2" fill="#FFFFFF" transform="translate(49.661230, 46.224078) scale(-1, 1) rotate(-30.000000) translate(-49.661230, -46.224078) " x="44.120138" y="36.5742848" width="11.0821841" height="19.2995859" rx="5.54109203"></rect>
                    <rect id="Rectangle-3" stroke="#000000" stroke-width="2" fill="#FFFFFF" transform="translate(39.344730, 41.728450) scale(-1, 1) rotate(-30.000000) translate(-39.344730, -41.728450) " x="33.803638" y="26.0475369" width="11.0821841" height="31.361827" rx="5.54109203"></rect>
                    <path d="M6.99043405,41.7742883 C6.99043405,41.7742883 6.99043405,41.7742883 6.99043405,41.7742883 C7.10239694,38.8243321 9.78445414,36.3911089 12.9642873,36.3398015 L34.4454665,35.9931972 C37.6327717,35.9417692 40.216593,38.4829123 40.216593,41.6775313 L40.216593,41.3807177 C40.216593,44.5715167 37.6239107,47.2070384 34.4408456,47.2670342 L19.5804832,47.547129" id="Rectangle-2" stroke="#000000" stroke-width="2" fill="#FFFFFF" transform="translate(23.603514, 41.769088) rotate(-25.000000) translate(-23.603514, -41.769088) "></path>
                    <path d="M8.31163805,48.1825017 C8.54911343,48.9866511 11.7946102,59.6014233 11.7946102,59.6014233 C11.7946102,59.6014233 8.07416268,47.3783523 8.31163805,48.1825017 Z" id="Path-2" stroke="#000000" stroke-width="2"></path>
                    <path d="M22.1733042,49.8712155 C22.1733042,49.8712155 12,43 10,44 C8,47 12,58 15,65 C17.5121488,65.8506747 22.1733042,49.8712155 22.1733042,49.8712155 Z" id="Path-3" fill="#FFFFFF"></path>
                    <path d="M7.65789474,14.3294118 C6.25664808,14.3294118 5.31578947,13.2585993 5.31578947,11.8219814 C5.31578947,10.3853635 7.65789474,7 7.65789474,7 C7.65789474,7 10,10.1725312 10,11.8219814 C10,13.2585993 9.05914139,14.3294118 7.65789474,14.3294118 Z" id="Stroke-3703" fill="#FF2D55"></path>
                </g>
            </g>
        </g>
    </g>
</svg>